<svg width="200" height="200" viewBox="0 0 200 200" fill="none" xmlns="http://www.w3.org/2000/svg">
  <path d="M100 20C55.8 20 20 55.8 20 100C20 144.2 55.8 180 100 180C144.2 180 180 144.2 180 100C180 55.8 144.2 20 100 20ZM100 160C66.9 160 40 133.1 40 100C40 66.9 66.9 40 100 40C133.1 40 160 66.9 160 100C160 133.1 133.1 160 100 160Z" fill="#1A3DB0"/>
  <path d="M100 60C77.9 60 60 77.9 60 100C60 122.1 77.9 140 100 140C122.1 140 140 122.1 140 100C140 77.9 122.1 60 100 60ZM100 120C89 120 80 111 80 100C80 89 89 80 100 80C111 80 120 89 120 100C120 111 111 120 100 120Z" fill="#DC2626"/>
  <rect x="92" y="50" width="16" height="100" rx="8" fill="#1A3DB0" transform="rotate(45 100 100)"/>
  <rect x="92" y="50" width="16" height="100" rx="8" fill="#DC2626" transform="rotate(-45 100 100)"/>
</svg>
